<svg width="50" height="50" viewBox="0 0 50 50" fill="none" xmlns="http://www.w3.org/2000/svg">
<path d="M23.0464 34.424C22.7387 34.4248 22.4338 34.3617 22.1494 34.2383C21.865 34.1149 21.6067 33.9337 21.3894 33.705C20.4753 32.7467 20.4761 31.1857 21.3901 30.2266C21.4264 30.1885 21.4694 30.1583 21.5168 30.1377C21.5642 30.117 21.615 30.1064 21.6663 30.1064C21.7176 30.1064 21.7684 30.117 21.8158 30.1377C21.8632 30.1583 21.9062 30.1885 21.9425 30.2266C21.9788 30.2646 22.0076 30.3098 22.0272 30.3595C22.0469 30.4092 22.057 30.4625 22.057 30.5163C22.057 30.5701 22.0469 30.6234 22.0272 30.6731C22.0076 30.7229 21.9788 30.768 21.9425 30.8061C21.3329 31.4457 21.3329 32.4856 21.9417 33.1253C22.5498 33.7635 23.5416 33.7642 24.1528 33.1253C24.442 32.8211 24.6053 32.4184 24.6105 31.9917C24.6136 31.7652 24.7791 31.573 25.0065 31.5874C25.0578 31.5882 25.1085 31.5995 25.1556 31.6207C25.2028 31.642 25.2455 31.6728 25.2812 31.7114C25.317 31.75 25.3452 31.7956 25.3642 31.8456C25.3831 31.8957 25.3925 31.9491 25.3918 32.003C25.3834 32.6443 25.1392 33.2479 24.7051 33.7042C24.2481 34.1845 23.6469 34.424 23.0464 34.424ZM20.7042 23.8957C19.4118 23.8957 18.3604 22.793 18.3604 21.4371C18.3604 20.0805 19.4118 18.9771 20.7042 18.9771C21.2776 18.9762 21.8314 19.1961 22.2606 19.5951C22.338 19.6673 22.385 19.7688 22.3912 19.8773C22.3973 19.9859 22.3622 20.0925 22.2934 20.1739C22.2245 20.255 22.1278 20.3041 22.0244 20.3106C21.921 20.317 21.8194 20.2803 21.7418 20.2083C21.4557 19.9423 21.0864 19.7959 20.7042 19.7968C19.8428 19.7968 19.1416 20.5326 19.1416 21.4371C19.1416 22.3406 19.8427 23.0759 20.7042 23.0759C20.7555 23.0758 20.8063 23.0864 20.8537 23.107C20.9011 23.1276 20.9442 23.1578 20.9805 23.1958C21.0168 23.2339 21.0455 23.2791 21.0652 23.3289C21.0848 23.3786 21.0949 23.4319 21.0948 23.4858C21.0949 23.5396 21.0848 23.5929 21.0652 23.6427C21.0455 23.6924 21.0168 23.7376 20.9805 23.7757C20.9442 23.8138 20.9011 23.844 20.8537 23.8646C20.8063 23.8852 20.7555 23.8958 20.7042 23.8957ZM18.2811 28.5838C18.2275 28.5836 18.1746 28.5722 18.1254 28.5502C17.8468 28.4225 17.6098 28.2124 17.4434 27.9455C17.2769 27.6786 17.1884 27.3665 17.1885 27.0476C17.1885 26.143 17.8897 25.4073 18.751 25.4073C18.9669 25.4073 19.1416 25.5906 19.1416 25.8171C19.1416 26.0436 18.9669 26.227 18.751 26.227C18.32 26.227 17.9697 26.5952 17.9697 27.0476C17.9694 27.2067 18.0135 27.3625 18.0965 27.4958C18.1794 27.629 18.2976 27.734 18.4366 27.7977C18.4837 27.8192 18.5262 27.8502 18.5619 27.8889C18.5975 27.9277 18.6255 27.9734 18.6443 28.0235C18.663 28.0736 18.6722 28.1271 18.6713 28.181C18.6703 28.2348 18.6593 28.2879 18.6387 28.3373C18.6086 28.4105 18.5587 28.4729 18.4951 28.5167C18.4315 28.5606 18.3571 28.5839 18.2811 28.5838Z" fill="black"/>
<path d="M18.751 26.226C17.6738 26.226 16.7979 25.3074 16.7979 24.1782C16.7986 22.9041 17.9552 21.909 19.1607 22.172C19.262 22.1942 19.3508 22.2578 19.4074 22.3487C19.4641 22.4396 19.484 22.5504 19.4629 22.6567C19.4526 22.7096 19.4325 22.7598 19.4037 22.8044C19.3749 22.849 19.3379 22.8872 19.2949 22.9167C19.2519 22.9463 19.2037 22.9665 19.1532 22.9764C19.1026 22.9862 19.0508 22.9855 19.0005 22.9741C18.275 22.8172 17.5792 23.4132 17.5792 24.1782C17.5792 24.8554 18.1049 25.4063 18.7511 25.4063C18.967 25.4063 19.1417 25.5896 19.1417 25.8161C19.1417 26.0427 18.9669 26.226 18.751 26.226ZM23.4385 21.3073C22.3612 21.3073 21.4854 20.3887 21.4854 19.2595C21.4854 18.1287 22.3612 17.2085 23.4385 17.2085C24.5157 17.2085 25.3917 18.1287 25.3917 19.2595C25.3917 19.3133 25.3816 19.3666 25.362 19.4164C25.3424 19.4661 25.3136 19.5113 25.2773 19.5494C25.241 19.5875 25.198 19.6176 25.1506 19.6382C25.1032 19.6588 25.0523 19.6694 25.001 19.6694C24.9497 19.6694 24.8989 19.6588 24.8515 19.6383C24.8041 19.6177 24.761 19.5875 24.7247 19.5494C24.6884 19.5114 24.6597 19.4662 24.64 19.4164C24.6204 19.3667 24.6103 19.3133 24.6103 19.2595C24.6103 18.5807 24.0847 18.0282 23.4384 18.0282C22.7922 18.0282 22.2665 18.5807 22.2665 19.2595C22.2665 19.9367 22.7922 20.4876 23.4384 20.4876C23.4897 20.4875 23.5405 20.4981 23.5879 20.5187C23.6353 20.5393 23.6784 20.5695 23.7147 20.6075C23.751 20.6456 23.7798 20.6908 23.7994 20.7406C23.819 20.7903 23.8291 20.8436 23.8291 20.8975C23.8292 20.9513 23.8191 21.0046 23.7995 21.0544C23.7799 21.1041 23.7511 21.1493 23.7148 21.1874C23.6785 21.2255 23.6354 21.2557 23.588 21.2762C23.5406 21.2968 23.4898 21.3074 23.4385 21.3073ZM20.7096 32.7858C19.8871 32.7858 19.0837 32.4432 18.4931 31.8244C17.2748 30.5458 17.2755 28.4652 18.4947 27.1859C19.0852 26.5655 19.8695 26.2245 20.7027 26.2245H20.7035C21.5366 26.2245 22.3218 26.5655 22.9137 27.1868C22.95 27.2248 22.9788 27.27 22.9984 27.3197C23.0181 27.3694 23.0282 27.4227 23.0282 27.4766C23.0282 27.5304 23.0181 27.5837 22.9984 27.6334C22.9788 27.6831 22.95 27.7283 22.9137 27.7663C22.8774 27.8044 22.8344 27.8347 22.787 27.8553C22.7396 27.8759 22.6888 27.8865 22.6375 27.8865C22.5862 27.8865 22.5354 27.8759 22.488 27.8553C22.4406 27.8347 22.3976 27.8044 22.3613 27.7663C21.9174 27.3005 21.3283 27.0442 20.7035 27.0442H20.7027C20.0786 27.0442 19.4904 27.3005 19.0471 27.7655C18.1324 28.7253 18.1316 30.2865 19.0456 31.2449C19.5743 31.7988 20.3312 32.0598 21.0667 31.9373C21.2765 31.9069 21.4801 32.0558 21.513 32.2792C21.5287 32.3866 21.5032 32.4961 21.4422 32.5839C21.3811 32.6716 21.2894 32.7304 21.1872 32.7475C21.0291 32.773 20.8695 32.7858 20.7096 32.7858ZM26.9554 34.4239C26.3542 34.4239 25.7541 34.1836 25.2971 33.7041C24.8631 33.247 24.6188 32.6434 24.6104 32.0021C24.6097 31.9482 24.6191 31.8948 24.6381 31.8448C24.6571 31.7947 24.6852 31.7491 24.721 31.7105C24.7568 31.6719 24.7995 31.6411 24.8466 31.6199C24.8938 31.5986 24.9445 31.5873 24.9958 31.5866C25.2147 31.5786 25.3879 31.7643 25.3918 31.9908C25.3971 32.4175 25.5603 32.8202 25.8491 33.1252C26.4611 33.764 27.4528 33.764 28.0602 33.1243C28.6689 32.4847 28.6689 31.4447 28.0602 30.8051C27.9075 30.645 27.9075 30.3857 28.0602 30.2256C28.2128 30.0655 28.46 30.0654 28.6125 30.2256C29.5266 31.1847 29.5266 32.7457 28.6125 33.704C28.1563 34.1836 27.555 34.4239 26.9554 34.4239ZM29.2975 23.8949C29.194 23.8947 29.0947 23.8515 29.0215 23.7747C28.9482 23.6978 28.9071 23.5936 28.907 23.485C28.907 23.3763 28.9482 23.2721 29.0214 23.1953C29.0946 23.1184 29.1939 23.0752 29.2975 23.0751C30.1597 23.0751 30.8601 22.3398 30.8601 21.4363C30.8601 20.5318 30.1597 19.796 29.2975 19.796C28.9153 19.7953 28.5461 19.9417 28.2599 20.2075C28.0983 20.3568 27.851 20.3424 27.7091 20.1731C27.6404 20.0918 27.6052 19.9852 27.6112 19.8768C27.6172 19.7683 27.6639 19.6667 27.7411 19.5943C28.1704 19.1954 28.7241 18.9755 29.2975 18.9763C30.59 18.9763 31.6413 20.0799 31.6413 21.4363C31.6414 22.7921 30.59 23.8949 29.2975 23.8949ZM31.7206 28.5829C31.5712 28.5829 31.4262 28.4909 31.3636 28.3364C31.343 28.2871 31.3318 28.234 31.3307 28.1802C31.3297 28.1263 31.3388 28.0728 31.3575 28.0226C31.3762 27.9725 31.4042 27.9267 31.4399 27.888C31.4755 27.8492 31.5181 27.8182 31.5652 27.7968C31.7041 27.733 31.8223 27.6281 31.9053 27.4948C31.9882 27.3616 32.0322 27.2058 32.032 27.0467C32.032 26.5944 31.6826 26.2261 31.2508 26.2261C31.1472 26.226 31.0479 26.1828 30.9747 26.106C30.9014 26.0291 30.8602 25.9249 30.8602 25.8162C30.8602 25.7076 30.9014 25.6034 30.9747 25.5265C31.0479 25.4497 31.1472 25.4065 31.2508 25.4064C32.1129 25.4064 32.8132 26.1421 32.8132 27.0467C32.8134 27.3656 32.7248 27.6777 32.5583 27.9446C32.3919 28.2115 32.1549 28.4217 31.8763 28.5493C31.8271 28.5713 31.7742 28.5827 31.7206 28.5829Z" fill="black"/>
<path d="M31.2513 26.226C31.1477 26.2259 31.0484 26.1827 30.9752 26.1059C30.9019 26.029 30.8608 25.9248 30.8607 25.8161C30.8608 25.7075 30.9019 25.6033 30.9752 25.5264C31.0484 25.4496 31.1477 25.4064 31.2513 25.4063C31.8982 25.4063 32.4231 24.8555 32.4231 24.1782C32.4231 23.4128 31.7289 22.8148 31.0026 22.9741C30.9523 22.9855 30.9004 22.9863 30.8499 22.9765C30.7993 22.9667 30.7512 22.9464 30.7081 22.9169C30.6651 22.8874 30.6281 22.8491 30.5993 22.8045C30.5705 22.7598 30.5504 22.7096 30.5402 22.6567C30.5191 22.5504 30.5391 22.4396 30.5957 22.3487C30.6524 22.2578 30.7411 22.1943 30.8424 22.172C32.0509 21.9091 33.2045 22.9042 33.2045 24.1782C33.2044 25.3074 32.3285 26.226 31.2513 26.226ZM26.5637 21.3073C26.4602 21.3072 26.3608 21.264 26.2876 21.1872C26.2144 21.1103 26.1732 21.0061 26.1731 20.8975C26.1732 20.7888 26.2144 20.6846 26.2876 20.6077C26.3608 20.5309 26.4602 20.4877 26.5637 20.4876C27.2107 20.4876 27.7356 19.9368 27.7356 19.2595C27.7356 18.5807 27.2107 18.0282 26.5637 18.0282C25.9183 18.0282 25.3923 18.5807 25.3923 19.2595C25.3923 19.3133 25.3822 19.3666 25.3626 19.4164C25.343 19.4661 25.3142 19.5113 25.2779 19.5494C25.2416 19.5875 25.1986 19.6176 25.1512 19.6382C25.1038 19.6588 25.053 19.6694 25.0017 19.6694C24.9504 19.6694 24.8995 19.6588 24.8521 19.6383C24.8047 19.6177 24.7616 19.5875 24.7253 19.5494C24.6891 19.5114 24.6603 19.4662 24.6406 19.4164C24.621 19.3667 24.6109 19.3133 24.611 19.2595C24.611 18.1287 25.4868 17.2085 26.5637 17.2085C27.641 17.2085 28.5168 18.1287 28.5168 19.2595C28.5168 20.3887 27.641 21.3073 26.5637 21.3073ZM29.292 32.7858C29.1326 32.7858 28.9735 32.7729 28.8159 32.7475C28.7136 32.7305 28.6218 32.6717 28.5606 32.584C28.4995 32.4962 28.4738 32.3867 28.4893 32.2792C28.523 32.055 28.7259 31.9029 28.9364 31.9373C29.6735 32.0598 30.4288 31.7988 30.9567 31.2441C31.8708 30.2865 31.8708 28.7253 30.9552 27.7655C30.5128 27.3005 29.9237 27.0442 29.2996 27.0442C28.674 27.0442 28.085 27.3005 27.641 27.7663C27.4883 27.9265 27.2412 27.9265 27.0886 27.7663C26.9361 27.6062 26.936 27.3468 27.0886 27.1868C27.6807 26.5655 28.4666 26.2245 29.2996 26.2245C30.1327 26.2245 30.9171 26.5655 31.5076 27.1859C32.7269 28.4653 32.7283 30.5459 31.5092 31.8244C30.9185 32.4432 30.116 32.7858 29.292 32.7858ZM30.0779 48.3601H19.9219C19.8706 48.3601 19.8198 48.3495 19.7724 48.3289C19.725 48.3083 19.682 48.278 19.6457 48.2399L18.0832 46.6004C18.0469 46.5624 18.0181 46.5172 17.9985 46.4675C17.9788 46.4177 17.9687 46.3644 17.9688 46.3106V40.5722C17.9687 40.5184 17.9788 40.465 17.9984 40.4153C18.018 40.3655 18.0468 40.3203 18.0831 40.2823C18.1194 40.2442 18.1624 40.214 18.2098 40.1934C18.2572 40.1729 18.3081 40.1623 18.3594 40.1623H31.6403C31.7439 40.1624 31.8433 40.2056 31.9165 40.2824C31.9897 40.3593 32.0309 40.4635 32.031 40.5722V46.3106C32.031 46.3644 32.0209 46.4177 32.0012 46.4675C31.9816 46.5172 31.9528 46.5624 31.9165 46.6004L30.3541 48.2399C30.3178 48.278 30.2748 48.3082 30.2274 48.3288C30.18 48.3495 30.1292 48.3601 30.0779 48.3601ZM20.0837 47.5402H29.9162L31.2497 46.1409V40.9821H18.75V46.1409L20.0837 47.5402Z" fill="black"/>
<path d="M17.5782 43.4417C17.4782 43.4418 17.382 43.4015 17.3095 43.3293C17.2369 43.257 17.1936 43.1583 17.1884 43.0535C17.183 42.9449 17.2188 42.8385 17.288 42.7576C17.3572 42.6768 17.4542 42.628 17.5576 42.622L32.4004 41.8022C32.6202 41.7974 32.8002 41.9648 32.8108 42.1906C32.823 42.4171 32.6568 42.6092 32.4416 42.622L17.5989 43.4417H17.5782ZM17.5782 45.9011C17.4782 45.9011 17.382 45.8608 17.3095 45.7886C17.237 45.7163 17.1936 45.6176 17.1884 45.5128C17.183 45.4043 17.2188 45.2979 17.288 45.217C17.3572 45.1361 17.4542 45.0873 17.5576 45.0813L32.4004 44.2616C32.4517 44.2585 32.5031 44.2661 32.5516 44.284C32.6001 44.3018 32.6447 44.3296 32.6829 44.3657C32.721 44.4019 32.752 44.4456 32.774 44.4943C32.7959 44.5431 32.8085 44.5959 32.8108 44.6498C32.823 44.8763 32.6568 45.0685 32.4416 45.0813L17.5989 45.9011H17.5782ZM31.6404 40.9825H18.3595C18.3082 40.9825 18.2573 40.9719 18.2099 40.9513C18.1625 40.9308 18.1195 40.9006 18.0832 40.8625C18.0469 40.8244 18.0181 40.7792 17.9985 40.7295C17.9789 40.6798 17.9688 40.6264 17.9688 40.5726V38.0316C14.0512 35.4626 11.7188 31.0668 11.7188 26.2265C11.7188 18.542 17.6766 12.2903 25.0002 12.2903C32.3226 12.2903 38.2811 18.5419 38.2811 26.2265C38.2811 31.0676 35.9481 35.4634 32.0311 38.0316V40.5726C32.031 40.6813 31.9898 40.7855 31.9166 40.8623C31.8433 40.9392 31.744 40.9824 31.6404 40.9825ZM18.7501 40.1627H31.2498V37.8027C31.2497 37.732 31.2671 37.6626 31.3003 37.6011C31.3335 37.5396 31.3813 37.4882 31.439 37.452C35.234 35.0511 37.5 30.8553 37.5 26.2264C37.5 18.9942 31.8923 13.1101 25.0003 13.1101C18.1078 13.1101 12.5001 18.9942 12.5001 26.2264C12.5001 30.8537 14.7661 35.0502 18.5611 37.452C18.6188 37.4882 18.6666 37.5396 18.6998 37.6011C18.733 37.6626 18.7504 37.732 18.7503 37.8027V40.1627H18.7501ZM25.0002 50C22.0582 50 21.1716 48.2099 21.1351 48.1339C21.0888 48.0366 21.0812 47.9241 21.1139 47.8209C21.1467 47.7178 21.2172 47.6326 21.3098 47.5839C21.5029 47.4847 21.7355 47.5639 21.8325 47.7641C21.863 47.8257 22.5726 49.1804 25.0003 49.1804C27.4306 49.1804 28.1386 47.8217 28.1676 47.7634C28.2668 47.5648 28.5017 47.4848 28.6925 47.5872C28.8833 47.6897 28.9611 47.933 28.865 48.134C28.8283 48.2099 27.9418 50 25.0002 50ZM8.2031 26.6363H0.390614C0.339307 26.6363 0.288496 26.6258 0.241087 26.6052C0.193678 26.5846 0.150602 26.5544 0.114322 26.5163C0.0780428 26.4783 0.0492719 26.4331 0.0296553 26.3833C0.0100388 26.3336 -3.84424e-05 26.2803 1.10201e-07 26.2264C-3.84424e-05 26.1726 0.0100388 26.1193 0.0296553 26.0695C0.0492719 26.0198 0.0780428 25.9746 0.114322 25.9365C0.150602 25.8984 0.193678 25.8683 0.241087 25.8477C0.288496 25.8271 0.339307 25.8165 0.390614 25.8166H8.2031C8.25441 25.8165 8.30522 25.8271 8.35264 25.8477C8.40005 25.8683 8.44314 25.8984 8.47942 25.9365C8.51571 25.9746 8.54449 26.0198 8.56412 26.0695C8.58375 26.1193 8.59383 26.1726 8.59381 26.2264C8.59383 26.2803 8.58375 26.3336 8.56412 26.3833C8.54449 26.4331 8.51571 26.4783 8.47942 26.5163C8.44314 26.5544 8.40005 26.5846 8.35264 26.6052C8.30522 26.6258 8.25441 26.6363 8.2031 26.6363ZM49.6094 26.6363H41.7968C41.7455 26.6364 41.6947 26.6259 41.6472 26.6053C41.5998 26.5847 41.5567 26.5545 41.5204 26.5165C41.4841 26.4784 41.4553 26.4332 41.4357 26.3834C41.4161 26.3336 41.4061 26.2803 41.4062 26.2264C41.4061 26.1726 41.4161 26.1192 41.4357 26.0695C41.4553 26.0197 41.4841 25.9745 41.5204 25.9364C41.5567 25.8983 41.5998 25.8681 41.6472 25.8476C41.6947 25.827 41.7455 25.8165 41.7968 25.8166H49.6094C49.713 25.8166 49.8123 25.8598 49.8855 25.9367C49.9587 26.0135 49.9999 26.1178 50 26.2264C50 26.3351 49.9588 26.4393 49.8855 26.5162C49.8123 26.593 49.713 26.6362 49.6094 26.6363ZM3.68724 39.5478C3.61871 39.5478 3.55139 39.5289 3.49206 39.4929C3.43273 39.4569 3.38349 39.4052 3.3493 39.3429C3.32357 39.2963 3.30685 39.2448 3.30009 39.1914C3.29333 39.138 3.29667 39.0837 3.30991 39.0317C3.32315 38.9796 3.34604 38.9308 3.37726 38.8881C3.40849 38.8453 3.44743 38.8094 3.49188 38.7825L10.2593 34.6835C10.4462 34.5715 10.6858 34.6371 10.7926 34.8341C10.8183 34.8807 10.835 34.9322 10.8418 34.9856C10.8485 35.039 10.8452 35.0933 10.8319 35.1453C10.8187 35.1974 10.7958 35.2461 10.7645 35.2889C10.7333 35.3317 10.6943 35.3675 10.6499 35.3945L3.88259 39.4933C3.8231 39.529 3.75576 39.5478 3.68724 39.5478ZM39.5476 17.8238C39.479 17.8239 39.4115 17.805 39.352 17.769C39.2925 17.733 39.2431 17.6812 39.2088 17.6188C39.1831 17.5722 39.1663 17.5207 39.1596 17.4672C39.1529 17.4138 39.1563 17.3595 39.1696 17.3075C39.183 17.2555 39.206 17.2067 39.2373 17.164C39.2686 17.1213 39.3077 17.0856 39.3523 17.0588L46.1166 12.9599C46.3027 12.8475 46.5423 12.9131 46.6491 13.1101C46.701 13.2041 46.7152 13.3159 46.6886 13.4209C46.662 13.5259 46.5968 13.6155 46.5072 13.6701L39.7429 17.7689C39.6834 17.8047 39.6161 17.8236 39.5476 17.8238ZM33.3998 11.3729C33.3312 11.3731 33.2638 11.3541 33.2045 11.318C33.1599 11.2912 33.1208 11.2554 33.0895 11.2128C33.0582 11.1701 33.0352 11.1213 33.0218 11.0693C33.0085 11.0172 33.0051 10.963 33.0118 10.9095C33.0185 10.8561 33.0353 10.8046 33.061 10.758L36.9658 3.65859C37.0726 3.46201 37.3106 3.39443 37.4999 3.50846C37.5894 3.56298 37.6547 3.65261 37.6813 3.75762C37.7079 3.86264 37.6937 3.97445 37.6418 4.06846L33.737 11.1679C33.703 11.2302 33.6539 11.2819 33.5947 11.3179C33.5355 11.3539 33.4682 11.3729 33.3998 11.3729ZM25.0018 9.0096C24.9504 9.00964 24.8996 8.99907 24.8522 8.97849C24.8048 8.9579 24.7617 8.92771 24.7254 8.88965C24.6891 8.85158 24.6604 8.80638 24.6407 8.75663C24.6211 8.70689 24.611 8.65357 24.611 8.59973L24.6103 0.403492C24.6119 0.295896 24.6538 0.193283 24.7268 0.117796C24.7999 0.0423085 24.8984 0 25.0009 0C25.1035 0 25.2019 0.0423085 25.275 0.117796C25.3481 0.193283 25.39 0.295896 25.3916 0.403492L25.3924 8.59973C25.3923 8.70842 25.3512 8.81266 25.2779 8.88952C25.2047 8.96638 25.1054 9.00957 25.0018 9.0096ZM16.6032 11.3712C16.5347 11.3713 16.4673 11.3525 16.4079 11.3165C16.3486 11.2805 16.2994 11.2286 16.2653 11.1662L12.3589 4.06846C12.3332 4.02188 12.3165 3.97042 12.3097 3.91704C12.3029 3.86367 12.3063 3.80941 12.3195 3.7574C12.3328 3.70538 12.3557 3.65661 12.3869 3.61389C12.4182 3.57118 12.4572 3.53535 12.5016 3.50846C12.546 3.4815 12.595 3.464 12.6459 3.45696C12.6967 3.44992 12.7484 3.45347 12.7979 3.46742C12.8475 3.48136 12.8939 3.50543 12.9346 3.53823C12.9752 3.57103 13.0093 3.61193 13.0349 3.65859L16.9412 10.7564C16.9757 10.8186 16.9939 10.8893 16.994 10.9613C16.9941 11.0333 16.9761 11.1041 16.9418 11.1664C16.9075 11.2288 16.8581 11.2805 16.7987 11.3165C16.7392 11.3525 16.6718 11.3713 16.6032 11.3712ZM46.3134 39.5462C46.2449 39.5464 46.1776 39.5276 46.1182 39.4919L39.3524 35.3929C39.3078 35.3661 39.2687 35.3303 39.2374 35.2876C39.2061 35.2449 39.1831 35.1961 39.1697 35.144C39.1564 35.0919 39.153 35.0376 39.1597 34.9842C39.1664 34.9307 39.1832 34.8792 39.2089 34.8325C39.2608 34.7383 39.3461 34.6696 39.4463 34.6414C39.5464 34.6131 39.6531 34.6278 39.743 34.682L46.5088 38.7809C46.5984 38.8356 46.6636 38.9253 46.6902 39.0303C46.7168 39.1354 46.7026 39.2473 46.6507 39.3414C46.6166 39.4036 46.5675 39.4554 46.5083 39.4913C46.4491 39.5273 46.3819 39.5462 46.3134 39.5462ZM10.4546 17.8206C10.3861 17.8206 10.3187 17.8017 10.2593 17.7657L3.49422 13.6684C3.44977 13.6415 3.41082 13.6057 3.37958 13.563C3.34834 13.5203 3.32545 13.4715 3.31219 13.4195C3.29894 13.3675 3.29559 13.3132 3.30235 13.2599C3.3091 13.2065 3.32582 13.155 3.35154 13.1084C3.45914 12.9123 3.69867 12.8462 3.88484 12.9583L10.6499 17.0556C10.6943 17.0825 10.7333 17.1183 10.7646 17.161C10.7958 17.2038 10.8187 17.2525 10.832 17.3045C10.8452 17.3566 10.8486 17.4108 10.8418 17.4642C10.835 17.5176 10.8183 17.569 10.7926 17.6156C10.7584 17.6779 10.7091 17.7297 10.6498 17.7657C10.5905 17.8017 10.5232 17.8206 10.4546 17.8206Z" fill="black"/>
<path d="M25.002 32.4073C24.9507 32.4073 24.8999 32.3967 24.8525 32.3762C24.8051 32.3556 24.762 32.3254 24.7257 32.2873C24.6894 32.2492 24.6606 32.2041 24.641 32.1543C24.6214 32.1046 24.6113 32.0512 24.6113 31.9974V19.2605C24.6113 19.2066 24.6214 19.1533 24.641 19.1036C24.6606 19.0538 24.6894 19.0086 24.7257 18.9705C24.762 18.9325 24.8051 18.9023 24.8525 18.8817C24.8999 18.8611 24.9507 18.8505 25.002 18.8506C25.0533 18.8506 25.1041 18.8611 25.1516 18.8817C25.199 18.9023 25.242 18.9325 25.2783 18.9706C25.3146 19.0086 25.3434 19.0538 25.363 19.1036C25.3826 19.1533 25.3927 19.2066 25.3927 19.2605V31.9974C25.3927 32.0512 25.3826 32.1045 25.363 32.1543C25.3434 32.204 25.3146 32.2492 25.2783 32.2873C25.242 32.3253 25.199 32.3555 25.1516 32.3761C25.1041 32.3967 25.0533 32.4073 25.002 32.4073Z" fill="black"/>
<path d="M26.1703 29.5059C25.1583 29.5059 24.6707 28.502 24.6508 28.4587C24.6044 28.3616 24.5966 28.2491 24.6293 28.1459C24.6619 28.0428 24.7322 27.9574 24.8248 27.9087C24.9174 27.86 25.0246 27.8519 25.1229 27.8861C25.2212 27.9203 25.3025 27.9942 25.349 28.0913C25.3536 28.1001 25.6473 28.6862 26.1703 28.6862C26.2739 28.6863 26.3732 28.7295 26.4464 28.8063C26.5196 28.8832 26.5608 28.9874 26.5609 29.096C26.5608 29.2047 26.5196 29.3089 26.4464 29.3858C26.3732 29.4626 26.2739 29.5058 26.1703 29.5059Z" fill="black"/>
<path d="M23.8281 29.5055C23.7768 29.5056 23.726 29.495 23.6786 29.4744C23.6312 29.4538 23.5881 29.4236 23.5519 29.3855C23.5156 29.3475 23.4868 29.3023 23.4672 29.2525C23.4476 29.2028 23.4375 29.1495 23.4375 29.0957C23.4375 29.0418 23.4475 28.9885 23.4672 28.9388C23.4868 28.889 23.5155 28.8438 23.5518 28.8057C23.5881 28.7677 23.6312 28.7375 23.6786 28.7169C23.726 28.6963 23.7768 28.6857 23.8281 28.6858C24.3514 28.6858 24.646 28.0966 24.649 28.0909C24.7474 27.8916 24.9825 27.8099 25.1732 27.9107C25.3647 28.0132 25.4433 28.2566 25.3471 28.4583C25.3273 28.5016 24.8398 29.5055 23.8281 29.5055ZM26.9535 24.5868C25.1007 24.5868 24.6117 23.2463 24.6117 22.5374C24.6128 22.4297 24.6542 22.3269 24.727 22.251C24.7998 22.1751 24.8981 22.1323 25.0007 22.1318C25.1033 22.1314 25.2019 22.1733 25.2753 22.2485C25.3487 22.3237 25.391 22.4262 25.393 22.5338C25.3953 22.6602 25.4578 23.7671 26.9536 23.7671C27.0572 23.7672 27.1565 23.8104 27.2297 23.8872C27.303 23.9641 27.3441 24.0683 27.3442 24.177C27.3441 24.2857 27.3029 24.3899 27.2297 24.4667C27.1564 24.5436 27.0571 24.5868 26.9535 24.5868Z" fill="black"/>
<path d="M23.0469 24.5868C22.9956 24.5868 22.9448 24.5763 22.8974 24.5557C22.8499 24.5351 22.8069 24.5049 22.7706 24.4668C22.7343 24.4288 22.7056 24.3836 22.6859 24.3338C22.6663 24.2841 22.6562 24.2308 22.6563 24.1769C22.6562 24.1231 22.6663 24.0698 22.6859 24.0201C22.7056 23.9703 22.7343 23.9251 22.7706 23.8871C22.8069 23.849 22.8499 23.8188 22.8974 23.7982C22.9448 23.7776 22.9956 23.767 23.0469 23.7671C24.5423 23.7671 24.6048 22.6599 24.6072 22.5338C24.611 22.3084 24.7772 22.1119 25.0016 22.1295C25.1044 22.1301 25.2027 22.1733 25.2752 22.2497C25.3477 22.3262 25.3884 22.4296 25.3884 22.5374C25.3884 23.2462 24.8993 24.5868 23.0469 24.5868Z" fill="black"/>
</svg>
